<?xml version="1.0" encoding="UTF-8"?>
<!DOCTYPE svg PUBLIC "-//W3C//DTD SVG 1.1//EN" "http://www.w3.org/Graphics/SVG/1.1/DTD/svg11.dtd">
<!-- Creator: CorelDRAW (Evaluation Version) -->
<svg xmlns="http://www.w3.org/2000/svg" xml:space="preserve" width="215.9mm" height="279.4mm" version="1.1" style="shape-rendering:geometricPrecision; text-rendering:geometricPrecision; image-rendering:optimizeQuality; fill-rule:evenodd; clip-rule:evenodd"
viewBox="0 0 21590 27940"
 xmlns:xlink="http://www.w3.org/1999/xlink"
 xmlns:xodm="http://www.corel.com/coreldraw/odm/2003">
 <defs>
  <style type="text/css">
   <![CDATA[
    .fil0 {fill:#528FD8}
    .fil2 {fill:#82AEE3}
    .fil1 {fill:#B2CAEC}
    .fil3 {fill:#373435;fill-rule:nonzero}
   ]]>
  </style>
 </defs>
 <g id="Layer_x0020_1">
  <metadata id="CorelCorpID_0Corel-Layer"/>
  <g id="_1517213303520">
   <g>
    <ellipse class="fil0" cx="5072.1" cy="13742.35" rx="2639.37" ry="1103.38"/>
    <rect class="fil0" x="2432.73" y="12450.19" width="5278.74" height="1292.16"/>
    <ellipse class="fil1" cx="5072.1" cy="12450.19" rx="2639.37" ry="1103.38"/>
    <path class="fil2" d="M6607.54 11552.68c668.37,200.18 1103.93,527.57 1103.93,897.51 0,609.38 -1181.68,1103.38 -2639.37,1103.38 -848.09,0 -1602.65,-167.25 -2085.52,-427.12 3117.51,684.59 5075.96,-666.23 3582.98,-1573.64l37.98 -0.13z"/>
    <ellipse class="fil0" cx="5080.15" cy="12302.33" rx="792.9" ry="331.47"/>
   </g>
   <g>
    <ellipse class="fil0" cx="5072.1" cy="11626.52" rx="2639.37" ry="1103.38"/>
    <rect class="fil0" x="2432.73" y="10334.36" width="5278.74" height="1292.16"/>
    <ellipse class="fil1" cx="5072.1" cy="10334.36" rx="2639.37" ry="1103.38"/>
    <path class="fil2" d="M6607.54 9436.85c668.37,200.18 1103.93,527.57 1103.93,897.51 0,609.38 -1181.68,1103.38 -2639.37,1103.38 -848.09,0 -1602.65,-167.25 -2085.52,-427.12 3117.51,684.59 5075.96,-666.23 3582.98,-1573.64l37.98 -0.13z"/>
    <ellipse class="fil0" cx="5080.15" cy="10186.5" rx="792.9" ry="331.47"/>
   </g>
   <g>
    <ellipse class="fil0" cx="5072.1" cy="9549.72" rx="2639.37" ry="1103.38"/>
    <rect class="fil0" x="2432.73" y="8257.56" width="5278.74" height="1292.16"/>
    <ellipse class="fil1" cx="5072.1" cy="8257.56" rx="2639.37" ry="1103.38"/>
    <path class="fil2" d="M6607.54 7360.05c668.37,200.19 1103.93,527.57 1103.93,897.51 0,609.38 -1181.68,1103.38 -2639.37,1103.38 -848.09,0 -1602.65,-167.25 -2085.52,-427.12 3117.51,684.59 5075.96,-666.23 3582.98,-1573.64l37.98 -0.13z"/>
    <ellipse class="fil0" cx="5080.15" cy="8109.7" rx="792.9" ry="331.47"/>
   </g>
  </g>
  <g id="_1517213303424">
   <polygon class="fil3" points="8554.22,10028.97 8869.28,10028.97 8869.28,11089.4 9545.49,11089.4 9545.49,11373.72 8554.22,11373.72 "/>
   <path id="_1" class="fil3" d="M10350.42 11406.38c-144.72,0 -271.83,-29.14 -381.33,-87.41 -109.5,-58.27 -194.03,-140.56 -253.58,-246.86 -59.55,-106.3 -89.33,-229.89 -89.33,-370.76 0,-140.88 29.78,-264.47 89.33,-370.77 59.55,-106.3 144.08,-188.59 253.58,-246.86 109.5,-58.27 236.61,-87.41 381.33,-87.41 144.72,0 271.83,29.14 381.33,87.41 109.51,58.27 194.03,140.56 253.59,246.86 59.55,106.3 89.33,229.89 89.33,370.77 0,140.87 -29.78,264.46 -89.33,370.76 -59.56,106.3 -144.08,188.59 -253.59,246.86 -109.5,58.27 -236.61,87.41 -381.33,87.41zm0 -280.48c80.69,0 152.09,-17.61 214.2,-52.83 62.12,-35.22 110.14,-84.84 144.08,-148.88 33.94,-64.04 50.91,-138.32 50.91,-222.84 0,-84.53 -16.97,-158.81 -50.91,-222.85 -33.94,-64.03 -81.96,-113.66 -144.08,-148.88 -62.11,-35.22 -133.51,-52.83 -214.2,-52.83 -80.68,0 -151.76,17.61 -213.24,52.83 -61.47,35.22 -109.18,84.85 -143.12,148.88 -33.94,64.04 -50.9,138.32 -50.9,222.85 0,84.52 16.96,158.8 50.9,222.84 33.94,64.04 81.65,113.66 143.12,148.88 61.48,35.22 132.56,52.83 213.24,52.83z"/>
   <path id="_2" class="fil3" d="M11937.22 11406.38c-144.72,0 -271.83,-29.14 -381.33,-87.41 -109.5,-58.27 -194.03,-140.56 -253.58,-246.86 -59.55,-106.3 -89.33,-229.89 -89.33,-370.76 0,-140.88 29.78,-264.47 89.33,-370.77 59.55,-106.3 144.08,-188.59 253.58,-246.86 109.5,-58.27 236.61,-87.41 381.33,-87.41 144.72,0 271.83,29.14 381.33,87.41 109.51,58.27 194.03,140.56 253.59,246.86 59.55,106.3 89.33,229.89 89.33,370.77 0,140.87 -29.78,264.46 -89.33,370.76 -59.56,106.3 -144.08,188.59 -253.59,246.86 -109.5,58.27 -236.61,87.41 -381.33,87.41zm0 -280.48c80.69,0 152.09,-17.61 214.2,-52.83 62.12,-35.22 110.14,-84.84 144.08,-148.88 33.94,-64.04 50.91,-138.32 50.91,-222.84 0,-84.53 -16.97,-158.81 -50.91,-222.85 -33.94,-64.03 -81.96,-113.66 -144.08,-148.88 -62.11,-35.22 -133.51,-52.83 -214.2,-52.83 -80.68,0 -151.76,17.61 -213.24,52.83 -61.47,35.22 -109.18,84.85 -143.12,148.88 -33.94,64.04 -50.9,138.32 -50.9,222.85 0,84.52 16.96,158.8 50.9,222.84 33.94,64.04 81.65,113.66 143.12,148.88 61.48,35.22 132.56,52.83 213.24,52.83z"/>
   <path id="_3" class="fil3" d="M13520.18 10028.97c103.74,0 194.35,19.53 271.83,58.59 77.48,39.07 137.36,95.1 179.62,168.1 42.26,73 63.4,158.17 63.4,255.5 0,97.33 -21.14,182.5 -63.4,255.5 -42.26,73 -102.14,129.03 -179.62,168.1 -77.48,39.06 -168.09,58.59 -271.83,58.59l-328.5 0 0 380.37 -315.06 0 0 -1344.75 643.56 0zm-15.37 689.67c66.6,0 119.43,-18.58 158.49,-55.72 39.06,-37.14 58.59,-87.08 58.59,-149.84 0,-62.75 -19.53,-112.7 -58.59,-149.84 -39.06,-37.14 -91.89,-55.71 -158.49,-55.71l-315.05 0 0 411.11 315.05 0z"/>
   <path id="_4" class="fil3" d="M14715.09 11404.46c-110.14,0 -216.12,-16.65 -317.94,-49.95 -101.82,-33.3 -189.86,-80.05 -264.15,-140.24l163.3 -228.61c119.1,93.5 258.06,140.24 416.87,140.24 79.4,0 142.48,-13.45 189.22,-40.34 46.75,-26.9 70.12,-63.4 70.12,-109.5 0,-43.55 -21.77,-77.48 -65.31,-101.82 -43.55,-24.33 -112.71,-41.62 -207.48,-51.87 -183.14,-20.49 -317.3,-63.39 -402.46,-128.71 -85.17,-65.32 -127.76,-158.81 -127.76,-280.48 0,-81.96 23.06,-154.32 69.16,-217.08 46.11,-62.75 110.78,-111.42 194.03,-146 83.25,-34.58 179.3,-51.87 288.16,-51.87 93.49,0 184.74,13.45 273.75,40.35 89.01,26.89 167.46,64.67 235.34,113.34l-147.93 220.92c-105.02,-73 -220.92,-109.5 -347.71,-109.5 -78.12,0 -140.56,12.81 -187.31,38.42 -46.74,25.62 -70.11,60.2 -70.11,103.74 0,42.26 20.17,74.92 60.51,97.98 40.34,23.05 107.9,40.34 202.67,51.86 181.86,20.5 317.62,65.64 407.27,135.44 89.65,69.8 134.47,165.53 134.47,287.2 0,84.53 -23.69,159.13 -71.08,223.8 -47.38,64.68 -113.98,114.63 -199.79,149.85 -85.8,35.22 -184.42,52.83 -295.84,52.83z"/>
   <polygon id="_5" class="fil3" points="16494,10028.97 16494,10303.68 16082.89,10303.68 16082.89,11373.72 15767.84,11373.72 15767.84,10303.68 15358.65,10303.68 15358.65,10028.97 "/>
   <path id="_6" class="fil3" d="M17585.17 11373.72l-99.9 -242.05 -662.76 0 -99.9 242.05 -336.19 0 603.22 -1344.75 336.19 0 599.37 1344.75 -340.03 0zm-428.4 -1043.14l-220.92 530.21 438 0 -217.08 -530.21z"/>
   <path id="_7" class="fil3" d="M18659.05 11404.46c-144.72,0 -271.83,-29.46 -381.33,-88.37 -109.5,-58.91 -194.03,-141.52 -253.58,-247.82 -59.55,-106.3 -89.33,-228.61 -89.33,-366.92 0,-138.32 30.42,-260.95 91.25,-367.89 60.83,-106.94 145.68,-189.55 254.54,-247.82 108.86,-58.27 233.09,-87.41 372.69,-87.41 198.51,0 368.84,69.8 511,209.4l-194.02 194.03c-85.81,-81.97 -188.91,-122.95 -309.3,-122.95 -80.68,0 -152.08,17.61 -214.2,52.83 -62.11,35.22 -110.14,84.85 -144.08,148.88 -33.94,64.04 -50.9,137.68 -50.9,220.93 0,83.24 16.96,156.88 50.9,220.92 33.94,64.03 81.97,113.66 144.08,148.88 62.12,35.22 133.52,52.83 214.2,52.83 64.04,0 125.51,-11.53 184.43,-34.58 58.91,-23.05 110.14,-56.35 153.68,-99.89l184.42 205.55c-144.72,139.6 -319.53,209.4 -524.45,209.4z"/>
   <polygon id="_8" class="fil3" points="20558.99,11373.72 20149.8,11373.72 19677.22,10839.66 19677.22,11373.72 19364.08,11373.72 19364.08,10028.97 19677.22,10028.97 19677.22,10555.34 20119.06,10028.97 20507.12,10028.97 19940.4,10687.9 "/>
   <polygon class="fil3" points="9515.89,11871.76 9515.89,11928.23 9177.03,11928.23 9177.03,12791.13 9120.56,12791.13 9120.56,11928.23 8781.7,11928.23 8781.7,11871.76 "/>
   <polygon id="_1_0" class="fil3" points="9726.03,12735.97 10315.74,12735.97 10315.74,12791.13 9668.24,12791.13 9668.24,11871.76 10298.67,11871.76 10298.67,11926.92 9726.03,11926.92 9726.03,12298.61 10271.09,12298.61 10271.09,12353.77 9726.03,12353.77 "/>
   <path id="_2_1" class="fil3" d="M10935.66 12806.89c-91.06,0 -172.49,-20.14 -244.29,-60.42 -71.8,-40.27 -127.61,-96.53 -167.45,-168.77 -39.84,-72.23 -59.76,-154.32 -59.76,-246.26 0,-91.93 19.92,-174.02 59.76,-246.26 39.84,-72.23 95.44,-128.49 166.8,-168.77 71.36,-40.28 152.57,-60.41 243.63,-60.41 63.04,0 122.58,11.82 178.62,35.46 56.04,23.64 105.51,57.35 148.41,101.13l-39.4 38.09c-38.52,-38.53 -82.08,-68.08 -130.68,-88.66 -48.6,-20.57 -100.47,-30.86 -155.64,-30.86 -80.55,0 -152.35,17.73 -215.39,53.19 -63.05,35.46 -111.86,84.93 -146.45,148.41 -34.58,63.48 -51.87,136.38 -51.87,218.68 0,82.31 17.29,155.2 51.87,218.68 34.59,63.48 83.4,112.95 146.45,148.42 63.04,35.46 134.84,53.19 215.39,53.19 55.17,0 107.92,-10.29 158.27,-30.87 50.34,-20.57 95.22,-50.12 134.62,-88.65l38.09 38.09c-42.91,44.65 -92.82,78.58 -149.73,101.79 -56.91,23.2 -117.33,34.8 -181.25,34.8z"/>
   <polygon id="_3_2" class="fil3" points="12130.85,11871.76 12188.64,11871.76 12188.64,12791.13 12130.85,12791.13 12130.85,12347.2 11522.75,12347.2 11522.75,12791.13 11464.96,12791.13 11464.96,11871.76 11522.75,11871.76 11522.75,12292.04 12130.85,12292.04 "/>
   <path id="_4_3" class="fil3" d="M13109.33 12805.58c-75.3,0 -146.66,-15.54 -214.08,-46.63 -67.42,-31.08 -119.96,-72.45 -157.61,-124.11l39.4 -39.41c29.77,45.54 75.74,82.75 137.91,111.64 62.16,28.9 126.96,43.34 194.38,43.34 92.81,0 166.14,-17.29 219.99,-51.87 53.85,-34.59 80.78,-81.65 80.78,-141.19 0,-37.65 -9.42,-68.74 -28.24,-93.25 -18.83,-24.52 -50.35,-45.53 -94.57,-63.05 -44.21,-17.51 -107.48,-34.14 -189.78,-49.91 -84.06,-16.63 -150.38,-35.89 -198.98,-57.78 -48.6,-21.89 -83.84,-48.6 -105.73,-80.12 -21.89,-31.52 -32.83,-70.92 -32.83,-118.21 0,-47.28 14.23,-89.09 42.68,-125.43 28.46,-36.33 68.74,-64.35 120.83,-84.05 52.1,-19.7 112.3,-29.55 180.6,-29.55 66.54,0 127.83,11.16 183.87,33.49 56.04,22.33 103.32,54.94 141.85,97.85l-36.78 40.71c-33.27,-37.65 -75.08,-66.76 -125.43,-87.34 -50.34,-20.58 -105.29,-30.86 -164.83,-30.86 -86.68,0 -156.07,16.85 -208.17,50.56 -52.1,33.71 -78.15,78.59 -78.15,134.62 0,36.78 9.2,67.21 27.58,91.28 18.39,24.08 48.6,44.66 90.63,61.73 42.03,17.08 100.25,33.06 174.68,47.94 91.94,18.39 163.52,38.53 214.74,60.42 51.22,21.89 88,48.59 110.32,80.11 22.33,31.53 33.49,71.37 33.49,119.52 0,77.06 -32.17,137.91 -96.53,182.56 -64.36,44.66 -151.7,66.99 -262.02,66.99z"/>
   <path id="_5_4" class="fil3" d="M14068.1 12806.89c-89.31,0 -169.21,-20.14 -239.69,-60.42 -70.49,-40.27 -125.43,-96.53 -164.83,-168.77 -39.4,-72.23 -59.1,-154.32 -59.1,-246.26 0,-91.93 19.7,-174.02 59.1,-246.26 39.4,-72.23 94.34,-128.49 164.83,-168.77 70.48,-40.28 150.38,-60.41 239.69,-60.41 89.31,0 169.21,20.13 239.7,60.41 70.48,40.28 125.43,96.54 164.83,168.77 39.4,72.24 59.1,154.33 59.1,246.26 0,91.94 -19.7,174.03 -59.1,246.26 -39.4,72.24 -94.35,128.5 -164.83,168.77 -70.49,40.28 -150.39,60.42 -239.7,60.42zm0 -55.16c77.93,0 147.76,-17.73 209.49,-53.19 61.73,-35.47 109.89,-85.16 144.47,-149.07 34.59,-63.92 51.88,-136.6 51.88,-218.03 0,-81.43 -17.29,-154.1 -51.88,-218.02 -34.58,-63.92 -82.74,-113.61 -144.47,-149.07 -61.73,-35.46 -131.56,-53.19 -209.49,-53.19 -77.92,0 -147.75,17.73 -209.48,53.19 -61.73,35.46 -109.89,85.15 -144.48,149.07 -34.58,63.92 -51.87,136.59 -51.87,218.02 0,81.43 17.29,154.11 51.87,218.03 34.59,63.91 82.75,113.6 144.48,149.07 61.73,35.46 131.56,53.19 209.48,53.19z"/>
   <polygon id="_6_5" class="fil3" points="14736.62,11871.76 14794.41,11871.76 14794.41,12734.65 15321.08,12734.65 15321.08,12791.13 14736.62,12791.13 "/>
   <path id="_7_6" class="fil3" d="M15778.14 12805.58c-70.05,0 -132.21,-15.33 -186.5,-45.97 -54.29,-30.65 -96.53,-73.77 -126.74,-129.37 -30.21,-55.6 -45.31,-119.3 -45.31,-191.1l0 -567.38 57.78 0 0 567.38c0,61.29 12.7,115.36 38.09,162.21 25.39,46.84 60.86,83.4 106.39,109.66 45.53,26.27 97.63,39.4 156.29,39.4 58.67,0 110.76,-13.13 156.29,-39.4 45.53,-26.26 81,-62.82 106.39,-109.66 25.39,-46.85 38.09,-100.92 38.09,-162.21l0 -567.38 57.79 0 0 567.38c0,71.8 -15.11,135.5 -45.32,191.1 -30.2,55.6 -72.45,98.72 -126.74,129.37 -54.28,30.64 -116.45,45.97 -186.5,45.97z"/>
   <polygon id="_8_7" class="fil3" points="17012.73,11871.76 17012.73,11928.23 16673.87,11928.23 16673.87,12791.13 16617.4,12791.13 16617.4,11928.23 16278.54,11928.23 16278.54,11871.76 "/>
   <polygon id="_9" class="fil3" points="17165.08,11871.76 17222.87,11871.76 17222.87,12791.13 17165.08,12791.13 "/>
   <path id="_10" class="fil3" d="M17891.38 12806.89c-89.31,0 -169.21,-20.14 -239.69,-60.42 -70.49,-40.27 -125.43,-96.53 -164.83,-168.77 -39.4,-72.23 -59.1,-154.32 -59.1,-246.26 0,-91.93 19.7,-174.02 59.1,-246.26 39.4,-72.23 94.34,-128.49 164.83,-168.77 70.48,-40.28 150.38,-60.41 239.69,-60.41 89.31,0 169.21,20.13 239.7,60.41 70.48,40.28 125.43,96.54 164.83,168.77 39.4,72.24 59.1,154.33 59.1,246.26 0,91.94 -19.7,174.03 -59.1,246.26 -39.4,72.24 -94.35,128.5 -164.83,168.77 -70.49,40.28 -150.39,60.42 -239.7,60.42zm0 -55.16c77.93,0 147.76,-17.73 209.49,-53.19 61.73,-35.47 109.89,-85.16 144.47,-149.07 34.59,-63.92 51.88,-136.6 51.88,-218.03 0,-81.43 -17.29,-154.1 -51.88,-218.02 -34.58,-63.92 -82.74,-113.61 -144.47,-149.07 -61.73,-35.46 -131.56,-53.19 -209.49,-53.19 -77.92,0 -147.75,17.73 -209.48,53.19 -61.73,35.46 -109.89,85.15 -144.48,149.07 -34.58,63.92 -51.87,136.59 -51.87,218.02 0,81.43 17.29,154.11 51.87,218.03 34.59,63.91 82.75,113.6 144.48,149.07 61.73,35.46 131.56,53.19 209.48,53.19z"/>
   <polygon id="_11" class="fil3" points="19227.1,11871.76 19283.58,11871.76 19283.58,12791.13 19223.16,12791.13 18617.69,11959.75 18617.69,12791.13 18559.9,12791.13 18559.9,11871.76 18622.95,11871.76 19227.1,12700.51 "/>
   <path id="_12" class="fil3" d="M19853.59 12805.58c-75.3,0 -146.66,-15.54 -214.08,-46.63 -67.42,-31.08 -119.96,-72.45 -157.61,-124.11l39.4 -39.41c29.77,45.54 75.74,82.75 137.91,111.64 62.16,28.9 126.96,43.34 194.38,43.34 92.81,0 166.14,-17.29 219.99,-51.87 53.85,-34.59 80.78,-81.65 80.78,-141.19 0,-37.65 -9.42,-68.74 -28.24,-93.25 -18.83,-24.52 -50.35,-45.53 -94.57,-63.05 -44.21,-17.51 -107.48,-34.14 -189.78,-49.91 -84.06,-16.63 -150.38,-35.89 -198.98,-57.78 -48.6,-21.89 -83.84,-48.6 -105.73,-80.12 -21.89,-31.52 -32.83,-70.92 -32.83,-118.21 0,-47.28 14.23,-89.09 42.68,-125.43 28.46,-36.33 68.74,-64.35 120.83,-84.05 52.1,-19.7 112.3,-29.55 180.6,-29.55 66.54,0 127.83,11.16 183.87,33.49 56.04,22.33 103.32,54.94 141.85,97.85l-36.78 40.71c-33.27,-37.65 -75.08,-66.76 -125.43,-87.34 -50.34,-20.58 -105.29,-30.86 -164.83,-30.86 -86.68,0 -156.07,16.85 -208.17,50.56 -52.1,33.71 -78.15,78.59 -78.15,134.62 0,36.78 9.2,67.21 27.58,91.28 18.39,24.08 48.6,44.66 90.63,61.73 42.03,17.08 100.25,33.06 174.68,47.94 91.94,18.39 163.52,38.53 214.74,60.42 51.22,21.89 88,48.59 110.32,80.11 22.33,31.53 33.49,71.37 33.49,119.52 0,77.06 -32.17,137.91 -96.53,182.56 -64.36,44.66 -151.7,66.99 -262.02,66.99z"/>
  </g>
 </g>
</svg>
