<?xml version="1.0" encoding="UTF-8"?>
<!DOCTYPE svg PUBLIC "-//W3C//DTD SVG 1.1//EN" "http://www.w3.org/Graphics/SVG/1.1/DTD/svg11.dtd">
<!-- Creator: CorelDRAW (Evaluation Version) -->
<svg xmlns="http://www.w3.org/2000/svg" xml:space="preserve" width="215.9mm" height="279.4mm" version="1.1" style="shape-rendering:geometricPrecision; text-rendering:geometricPrecision; image-rendering:optimizeQuality; fill-rule:evenodd; clip-rule:evenodd"
viewBox="0 0 21590 27940"
 xmlns:xlink="http://www.w3.org/1999/xlink"
 xmlns:xodm="http://www.corel.com/coreldraw/odm/2003">
 <defs>
  <style type="text/css">
   <![CDATA[
    .fil0 {fill:#528FD8}
    .fil2 {fill:#82AEE3}
    .fil1 {fill:#B2CAEC}
    .fil3 {fill:#373435;fill-rule:nonzero}
   ]]>
  </style>
 </defs>
 <g id="Layer_x0020_1">
  <metadata id="CorelCorpID_0Corel-Layer"/>
  <g id="_1517537911520">
   <g>
    <ellipse class="fil0" cx="11340.2" cy="15696.69" rx="4234.64" ry="1770.28"/>
    <rect class="fil0" x="7105.56" y="13623.53" width="8469.28" height="2073.16"/>
    <ellipse class="fil1" cx="11340.2" cy="13623.53" rx="4234.64" ry="1770.28"/>
    <path class="fil2" d="M13803.68 12183.55c1072.34,321.18 1771.16,846.44 1771.16,1439.98 0,977.7 -1895.91,1770.28 -4234.64,1770.28 -1360.69,0 -2571.31,-268.34 -3346.04,-685.28 5001.77,1098.36 8143.94,-1068.91 5748.58,-2524.77l60.94 -0.21z"/>
    <ellipse class="fil0" cx="11353.1" cy="13386.3" rx="1272.14" ry="531.82"/>
   </g>
   <g>
    <ellipse class="fil0" cx="11340.2" cy="12302.03" rx="4234.64" ry="1770.28"/>
    <rect class="fil0" x="7105.56" y="10228.87" width="8469.28" height="2073.16"/>
    <ellipse class="fil1" cx="11340.2" cy="10228.87" rx="4234.64" ry="1770.28"/>
    <path class="fil2" d="M13803.68 8788.89c1072.34,321.18 1771.16,846.44 1771.16,1439.98 0,977.7 -1895.91,1770.28 -4234.64,1770.28 -1360.69,0 -2571.31,-268.34 -3346.04,-685.28 5001.77,1098.36 8143.94,-1068.91 5748.58,-2524.77l60.94 -0.21z"/>
    <ellipse class="fil0" cx="11353.1" cy="9991.64" rx="1272.14" ry="531.82"/>
   </g>
   <g>
    <ellipse class="fil0" cx="11340.2" cy="8969.99" rx="4234.64" ry="1770.28"/>
    <rect class="fil0" x="7105.56" y="6896.83" width="8469.28" height="2073.16"/>
    <ellipse class="fil1" cx="11340.2" cy="6896.83" rx="4234.64" ry="1770.28"/>
    <path class="fil2" d="M13803.68 5456.85c1072.34,321.18 1771.16,846.44 1771.16,1439.98 0,977.7 -1895.91,1770.28 -4234.64,1770.28 -1360.69,0 -2571.31,-268.34 -3346.04,-685.28 5001.77,1098.36 8143.94,-1068.91 5748.58,-2524.77l60.94 -0.21z"/>
    <ellipse class="fil0" cx="11353.1" cy="6659.6" rx="1272.14" ry="531.82"/>
   </g>
  </g>
  <g id="_1517537911376">
   <g>
    <polygon class="fil3" points="1349.79,19022.21 1855.27,19022.21 1855.27,20723.58 2940.2,20723.58 2940.2,21179.75 1349.79,21179.75 "/>
    <path id="_1" class="fil3" d="M4231.65 21232.15c-232.19,0 -436.13,-46.75 -611.82,-140.24 -175.68,-93.5 -311.3,-225.52 -406.85,-396.07 -95.55,-170.54 -143.32,-368.83 -143.32,-594.86 0,-226.03 47.77,-424.32 143.32,-594.86 95.55,-170.55 231.17,-302.57 406.85,-396.07 175.69,-93.49 379.63,-140.24 611.82,-140.24 232.19,0 436.13,46.75 611.82,140.24 175.68,93.5 311.3,225.52 406.85,396.07 95.54,170.54 143.32,368.83 143.32,594.86 0,226.03 -47.78,424.32 -143.32,594.86 -95.55,170.55 -231.17,302.57 -406.85,396.07 -175.69,93.49 -379.63,140.24 -611.82,140.24zm0 -450c129.45,0 244.01,-28.26 343.66,-84.76 99.66,-56.51 176.72,-136.13 231.17,-238.87 54.45,-102.74 81.68,-221.92 81.68,-357.54 0,-135.62 -27.23,-254.8 -81.68,-357.54 -54.45,-102.74 -131.51,-182.36 -231.17,-238.87 -99.65,-56.5 -214.21,-84.76 -343.66,-84.76 -129.45,0 -243.5,28.26 -342.13,84.76 -98.63,56.51 -175.17,136.13 -229.62,238.87 -54.45,102.74 -81.68,221.92 -81.68,357.54 0,135.62 27.23,254.8 81.68,357.54 54.45,102.74 130.99,182.36 229.62,238.87 98.63,56.5 212.68,84.76 342.13,84.76z"/>
    <path id="_2" class="fil3" d="M6777.55 21232.15c-232.19,0 -436.13,-46.75 -611.82,-140.24 -175.68,-93.5 -311.3,-225.52 -406.85,-396.07 -95.55,-170.54 -143.32,-368.83 -143.32,-594.86 0,-226.03 47.77,-424.32 143.32,-594.86 95.55,-170.55 231.17,-302.57 406.85,-396.07 175.69,-93.49 379.63,-140.24 611.82,-140.24 232.19,0 436.13,46.75 611.82,140.24 175.68,93.5 311.3,225.52 406.85,396.07 95.54,170.54 143.32,368.83 143.32,594.86 0,226.03 -47.78,424.32 -143.32,594.86 -95.55,170.55 -231.17,302.57 -406.85,396.07 -175.69,93.49 -379.63,140.24 -611.82,140.24zm0 -450c129.45,0 244.01,-28.26 343.66,-84.76 99.66,-56.51 176.72,-136.13 231.17,-238.87 54.45,-102.74 81.68,-221.92 81.68,-357.54 0,-135.62 -27.23,-254.8 -81.68,-357.54 -54.45,-102.74 -131.51,-182.36 -231.17,-238.87 -99.65,-56.5 -214.21,-84.76 -343.66,-84.76 -129.45,0 -243.5,28.26 -342.13,84.76 -98.63,56.51 -175.17,136.13 -229.62,238.87 -54.45,102.74 -81.68,221.92 -81.68,357.54 0,135.62 27.23,254.8 81.68,357.54 54.45,102.74 130.99,182.36 229.62,238.87 98.63,56.5 212.68,84.76 342.13,84.76z"/>
    <path id="_3" class="fil3" d="M9317.28 19022.21c166.44,0 311.82,31.34 436.14,94.01 124.31,62.67 220.37,152.57 288.18,269.69 67.81,117.12 101.71,253.77 101.71,409.93 0,156.17 -33.9,292.81 -101.71,409.93 -67.81,117.13 -163.87,207.03 -288.18,269.7 -124.32,62.67 -269.7,94 -436.14,94l-527.05 0 0 610.28 -505.48 0 0 -2157.54 1032.53 0zm-24.65 1106.51c106.85,0 191.61,-29.79 254.28,-89.38 62.67,-59.59 94.01,-139.73 94.01,-240.42 0,-100.68 -31.34,-180.82 -94.01,-240.41 -62.67,-59.59 -147.43,-89.38 -254.28,-89.38l-505.48 0 0 659.59 505.48 0z"/>
    <path id="_4" class="fil3" d="M11234.42 21229.07c-176.72,0 -346.75,-26.72 -510.11,-80.14 -163.35,-53.43 -304.62,-128.43 -423.8,-225l261.99 -366.78c191.09,150 414.04,225 668.83,225 127.4,0 228.6,-21.58 303.6,-64.73 75,-43.15 112.5,-101.71 112.5,-175.69 0,-69.86 -34.93,-124.31 -104.79,-163.35 -69.87,-39.04 -180.83,-66.78 -332.88,-83.22 -293.84,-32.88 -509.08,-101.71 -645.72,-206.51 -136.65,-104.79 -204.97,-254.79 -204.97,-450 0,-131.51 36.99,-247.6 110.96,-348.29 73.97,-100.68 177.74,-178.77 311.3,-234.25 133.57,-55.48 287.68,-83.22 462.33,-83.22 150,0 296.41,21.58 439.22,64.73 142.81,43.15 268.66,103.77 377.57,181.85l-237.33 354.45c-168.5,-117.12 -354.46,-175.68 -557.88,-175.68 -125.34,0 -225.52,20.55 -300.52,61.64 -75,41.1 -112.5,96.58 -112.5,166.44 0,67.81 32.37,120.21 97.09,157.19 64.73,36.99 173.12,64.73 325.18,83.22 291.78,32.88 509.59,105.31 653.42,217.3 143.84,111.98 215.76,265.58 215.76,460.79 0,135.61 -38.02,255.31 -114.05,359.07 -76.02,103.77 -182.87,183.91 -320.54,240.41 -137.68,56.51 -295.9,84.77 -474.66,84.77z"/>
    <polygon id="_5" class="fil3" points="14088.54,19022.21 14088.54,19462.96 13428.94,19462.96 13428.94,21179.75 12923.46,21179.75 12923.46,19462.96 12266.96,19462.96 12266.96,19022.21 "/>
    <path id="_6" class="fil3" d="M15839.23 21179.75l-160.28 -388.36 -1063.36 0 -160.27 388.36 -539.39 0 967.82 -2157.54 539.38 0 961.65 2157.54 -545.55 0zm-687.33 -1673.63l-354.46 850.68 702.75 0 -348.29 -850.68z"/>
    <path id="_7" class="fil3" d="M17562.18 21229.07c-232.19,0 -436.13,-47.27 -611.82,-141.79 -175.68,-94.52 -311.3,-227.05 -406.85,-397.6 -95.55,-170.55 -143.32,-366.78 -143.32,-588.7 0,-221.92 48.8,-418.67 146.4,-590.24 97.61,-171.58 233.74,-304.11 408.4,-397.61 174.65,-93.49 373.97,-140.24 597.94,-140.24 318.5,0 591.78,111.99 819.87,335.96l-311.3 311.31c-137.68,-131.51 -303.09,-197.26 -496.24,-197.26 -129.45,0 -244.01,28.25 -343.66,84.76 -99.66,56.5 -176.72,136.13 -231.17,238.87 -54.45,102.74 -81.68,220.89 -81.68,354.45 0,133.56 27.23,251.71 81.68,354.45 54.45,102.74 131.51,182.37 231.17,238.87 99.65,56.51 214.21,84.76 343.66,84.76 102.74,0 201.37,-18.49 295.89,-55.48 94.52,-36.98 176.71,-90.41 246.58,-160.27l295.89 329.8c-232.19,223.97 -512.67,335.96 -841.44,335.96z"/>
    <polygon id="_8" class="fil3" points="20610.48,21179.75 19953.97,21179.75 19195.75,20322.9 19195.75,21179.75 18693.35,21179.75 18693.35,19022.21 19195.75,19022.21 19195.75,19866.73 19904.65,19022.21 20527.26,19022.21 19618.01,20079.4 "/>
   </g>
   <g>
    <polygon class="fil3" points="2892.69,21978.84 2892.69,22069.45 2349.03,22069.45 2349.03,23453.89 2258.42,23453.89 2258.42,22069.45 1714.76,22069.45 1714.76,21978.84 "/>
    <polygon id="_1_8" class="fil3" points="3229.85,23365.39 4175.99,23365.39 4175.99,23453.89 3137.13,23453.89 3137.13,21978.84 4148.59,21978.84 4148.59,22067.34 3229.85,22067.34 3229.85,22663.68 4104.34,22663.68 4104.34,22752.19 3229.85,22752.19 "/>
    <path id="_2_9" class="fil3" d="M5170.6 23479.18c-146.1,0 -276.75,-32.31 -391.94,-96.94 -115.2,-64.62 -204.76,-154.88 -268.67,-270.77 -63.92,-115.9 -95.88,-247.6 -95.88,-395.11 0,-147.5 31.96,-279.2 95.88,-395.1 63.91,-115.9 153.12,-206.16 267.61,-270.78 114.49,-64.62 244.79,-96.93 390.89,-96.93 101.15,0 196.68,18.96 286.58,56.89 89.91,37.93 169.28,92.02 238.12,162.26l-63.22 61.11c-61.81,-61.81 -131.7,-109.22 -209.67,-142.24 -77.96,-33.01 -161.2,-49.52 -249.7,-49.52 -129.24,0 -244.44,28.45 -345.58,85.35 -101.15,56.89 -179.47,136.26 -234.96,238.11 -55.49,101.85 -83.24,218.8 -83.24,350.85 0,132.06 27.75,249.01 83.24,350.86 55.49,101.84 133.81,181.22 234.96,238.11 101.14,56.9 216.34,85.34 345.58,85.34 88.5,0 173.14,-16.5 253.92,-49.52 80.78,-33.01 152.77,-80.42 215.99,-142.23l61.11 61.11c-68.84,71.64 -148.91,126.08 -240.22,163.31 -91.32,37.22 -188.25,55.84 -290.8,55.84z"/>
    <polygon id="_3_10" class="fil3" points="7088.17,21978.84 7180.89,21978.84 7180.89,23453.89 7088.17,23453.89 7088.17,22741.65 6112.53,22741.65 6112.53,23453.89 6019.81,23453.89 6019.81,21978.84 6112.53,21978.84 6112.53,22653.15 7088.17,22653.15 "/>
    <path id="_4_11" class="fil3" d="M8658.05 23477.07c-120.81,0 -235.3,-24.94 -343.47,-74.81 -108.17,-49.87 -192.46,-116.25 -252.87,-199.13l63.22 -63.22c47.76,73.05 121.51,132.76 221.26,179.12 99.74,46.36 203.69,69.54 311.86,69.54 148.91,0 266.57,-27.75 352.96,-83.24 86.4,-55.49 129.6,-131 129.6,-226.53 0,-60.4 -15.1,-110.27 -45.31,-149.61 -30.2,-39.33 -80.77,-73.05 -151.72,-101.14 -70.94,-28.1 -172.44,-54.79 -304.49,-80.08 -134.86,-26.69 -241.28,-57.6 -319.24,-92.72 -77.97,-35.12 -134.52,-77.96 -169.64,-128.54 -35.12,-50.57 -52.68,-113.79 -52.68,-189.65 0,-75.86 22.83,-142.94 68.49,-201.24 45.65,-58.3 110.28,-103.25 193.86,-134.86 83.59,-31.61 180.17,-47.41 289.75,-47.41 106.76,0 205.1,17.91 295.01,53.73 89.9,35.83 165.76,88.16 227.58,156.99l-59.01 65.33c-53.38,-60.41 -120.46,-107.12 -201.24,-140.13 -80.77,-33.02 -168.92,-49.52 -264.45,-49.52 -139.08,0 -250.41,27.04 -334,81.12 -83.58,54.09 -125.38,126.09 -125.38,215.99 0,59.01 14.75,107.82 44.26,146.46 29.5,38.63 77.96,71.64 145.39,99.03 67.44,27.4 160.86,53.04 280.26,76.92 147.51,29.5 262.35,61.81 344.53,96.93 82.19,35.12 141.19,77.97 177.01,128.54 35.82,50.57 53.74,114.49 53.74,191.76 0,123.62 -51.63,221.26 -154.89,292.9 -103.25,71.65 -243.38,107.47 -420.39,107.47z"/>
    <path id="_5_12" class="fil3" d="M10196.33 23479.18c-143.3,0 -271.48,-32.31 -384.57,-96.94 -113.09,-64.62 -201.24,-154.88 -264.46,-270.77 -63.21,-115.9 -94.82,-247.6 -94.82,-395.11 0,-147.5 31.61,-279.2 94.82,-395.1 63.22,-115.9 151.37,-206.16 264.46,-270.78 113.09,-64.62 241.27,-96.93 384.57,-96.93 143.29,0 271.48,32.31 384.56,96.93 113.09,64.62 201.24,154.88 264.46,270.78 63.22,115.9 94.82,247.6 94.82,395.1 0,147.51 -31.6,279.21 -94.82,395.11 -63.22,115.89 -151.37,206.15 -264.46,270.77 -113.08,64.63 -241.27,96.94 -384.56,96.94zm0 -88.51c125.02,0 237.06,-28.44 336.1,-85.34 99.04,-56.89 176.3,-136.62 231.79,-239.17 55.49,-102.55 83.24,-219.15 83.24,-349.8 0,-130.64 -27.75,-247.24 -83.24,-349.8 -55.49,-102.55 -132.75,-182.27 -231.79,-239.16 -99.04,-56.9 -211.08,-85.35 -336.1,-85.35 -125.03,0 -237.07,28.45 -336.11,85.35 -99.04,56.89 -176.3,136.61 -231.79,239.16 -55.49,102.56 -83.24,219.16 -83.24,349.8 0,130.65 27.75,247.25 83.24,349.8 55.49,102.55 132.75,182.28 231.79,239.17 99.04,56.9 211.08,85.34 336.11,85.34z"/>
    <polygon id="_6_13" class="fil3" points="11268.9,21978.84 11361.62,21978.84 11361.62,23363.28 12206.61,23363.28 12206.61,23453.89 11268.9,23453.89 "/>
    <path id="_7_14" class="fil3" d="M12939.92 23477.07c-112.38,0 -212.12,-24.58 -299.22,-73.75 -87.1,-49.17 -154.88,-118.36 -203.35,-207.56 -48.47,-89.21 -72.7,-191.41 -72.7,-306.6l0 -910.32 92.72 0 0 910.32c0,98.33 20.37,185.08 61.11,260.24 40.74,75.15 97.63,133.81 170.68,175.95 73.05,42.14 156.64,63.22 250.76,63.22 94.13,0 177.71,-21.08 250.76,-63.22 73.05,-42.14 129.95,-100.8 170.69,-175.95 40.74,-75.16 61.11,-161.91 61.11,-260.24l0 -910.32 92.71 0 0 910.32c0,115.19 -24.23,217.39 -72.7,306.6 -48.46,89.2 -116.24,158.39 -203.34,207.56 -87.1,49.17 -186.84,73.75 -299.23,73.75z"/>
    <polygon id="_8_15" class="fil3" points="14920.71,21978.84 14920.71,22069.45 14377.05,22069.45 14377.05,23453.89 14286.44,23453.89 14286.44,22069.45 13742.78,22069.45 13742.78,21978.84 "/>
    <polygon id="_9" class="fil3" points="15165.15,21978.84 15257.87,21978.84 15257.87,23453.89 15165.15,23453.89 "/>
    <path id="_10" class="fil3" d="M16330.45 23479.18c-143.3,0 -271.48,-32.31 -384.57,-96.94 -113.09,-64.62 -201.24,-154.88 -264.46,-270.77 -63.21,-115.9 -94.82,-247.6 -94.82,-395.11 0,-147.5 31.61,-279.2 94.82,-395.1 63.22,-115.9 151.37,-206.16 264.46,-270.78 113.09,-64.62 241.27,-96.93 384.57,-96.93 143.29,0 271.48,32.31 384.56,96.93 113.09,64.62 201.24,154.88 264.46,270.78 63.22,115.9 94.82,247.6 94.82,395.1 0,147.51 -31.6,279.21 -94.82,395.11 -63.22,115.89 -151.37,206.15 -264.46,270.77 -113.08,64.63 -241.27,96.94 -384.56,96.94zm0 -88.51c125.02,0 237.06,-28.44 336.1,-85.34 99.04,-56.89 176.3,-136.62 231.79,-239.17 55.49,-102.55 83.24,-219.15 83.24,-349.8 0,-130.64 -27.75,-247.24 -83.24,-349.8 -55.49,-102.55 -132.75,-182.27 -231.79,-239.16 -99.04,-56.9 -211.08,-85.35 -336.1,-85.35 -125.03,0 -237.07,28.45 -336.11,85.35 -99.04,56.89 -176.3,136.61 -231.79,239.16 -55.49,102.56 -83.24,219.16 -83.24,349.8 0,130.65 27.75,247.25 83.24,349.8 55.49,102.55 132.75,182.28 231.79,239.17 99.04,56.9 211.08,85.34 336.11,85.34z"/>
    <polygon id="_11" class="fil3" points="18473.49,21978.84 18564.1,21978.84 18564.1,23453.89 18467.17,23453.89 17495.74,22120.02 17495.74,23453.89 17403.02,23453.89 17403.02,21978.84 17504.17,21978.84 18473.49,23308.49 "/>
    <path id="_12" class="fil3" d="M19478.63 23477.07c-120.81,0 -235.3,-24.94 -343.47,-74.81 -108.17,-49.87 -192.46,-116.25 -252.87,-199.13l63.22 -63.22c47.76,73.05 121.51,132.76 221.26,179.12 99.74,46.36 203.69,69.54 311.86,69.54 148.91,0 266.57,-27.75 352.96,-83.24 86.4,-55.49 129.6,-131 129.6,-226.53 0,-60.4 -15.1,-110.27 -45.31,-149.61 -30.2,-39.33 -80.77,-73.05 -151.72,-101.14 -70.94,-28.1 -172.44,-54.79 -304.49,-80.08 -134.86,-26.69 -241.28,-57.6 -319.24,-92.72 -77.97,-35.12 -134.52,-77.96 -169.64,-128.54 -35.12,-50.57 -52.68,-113.79 -52.68,-189.65 0,-75.86 22.83,-142.94 68.49,-201.24 45.65,-58.3 110.28,-103.25 193.86,-134.86 83.59,-31.61 180.17,-47.41 289.75,-47.41 106.76,0 205.1,17.91 295.01,53.73 89.9,35.83 165.76,88.16 227.58,156.99l-59.01 65.33c-53.38,-60.41 -120.46,-107.12 -201.24,-140.13 -80.77,-33.02 -168.92,-49.52 -264.45,-49.52 -139.08,0 -250.41,27.04 -334,81.12 -83.58,54.09 -125.38,126.09 -125.38,215.99 0,59.01 14.75,107.82 44.26,146.46 29.5,38.63 77.96,71.64 145.39,99.03 67.44,27.4 160.86,53.04 280.26,76.92 147.51,29.5 262.35,61.81 344.53,96.93 82.19,35.12 141.19,77.97 177.01,128.54 35.82,50.57 53.74,114.49 53.74,191.76 0,123.62 -51.63,221.26 -154.89,292.9 -103.25,71.65 -243.38,107.47 -420.39,107.47z"/>
   </g>
  </g>
 </g>
</svg>
